<svg xmlns="http://www.w3.org/2000/svg" viewBox="0 0 900 692.00">
  <defs>
    <!-- vertical light-to-dark shading baked into each stripe, like light wrapping over cloth -->
    <linearGradient id="shadeSaffron" x1="0" y1="0" x2="0" y2="1">
      <stop offset="0%"  stop-color="#ffb35c"/>
      <stop offset="45%" stop-color="#FF9933"/>
      <stop offset="100%" stop-color="#e6801a"/>
    </linearGradient>
    <linearGradient id="shadeWhite" x1="0" y1="0" x2="0" y2="1">
      <stop offset="0%"  stop-color="#ffffff"/>
      <stop offset="55%" stop-color="#ffffff"/>
      <stop offset="100%" stop-color="#e7e7e7"/>
    </linearGradient>
    <linearGradient id="shadeGreen" x1="0" y1="0" x2="0" y2="1">
      <stop offset="0%"  stop-color="#2fa030"/>
      <stop offset="45%" stop-color="#138808"/>
      <stop offset="100%" stop-color="#0c5c06"/>
    </linearGradient>

    <!-- soft diagonal gloss streak across the whole flag -->
    <linearGradient id="glossDiag" x1="0" y1="0" x2="0.85" y2="1">
      <stop offset="0%"   stop-color="#ffffff" stop-opacity="0.40"/>
      <stop offset="22%"  stop-color="#ffffff" stop-opacity="0.12"/>
      <stop offset="48%"  stop-color="#ffffff" stop-opacity="0"/>
      <stop offset="100%" stop-color="#000000" stop-opacity="0.16"/>
    </linearGradient>

    <!-- bright highlight hugging the very top ridge of the wave -->
    <linearGradient id="topRidge" x1="0" y1="0" x2="0" y2="1">
      <stop offset="0%"  stop-color="#ffffff" stop-opacity="0.55"/>
      <stop offset="100%" stop-color="#ffffff" stop-opacity="0"/>
    </linearGradient>

    <clipPath id="flagClip">
      <path d="M 0.00,79.17 L 7.50,79.62 L 15.00,79.89 L 22.50,80.00 L 30.00,79.93 L 37.50,79.70 L 45.00,79.30 L 52.50,78.73 L 60.00,78.00 L 67.50,77.11 L 75.00,76.06 L 82.50,74.87 L 90.00,73.52 L 97.50,72.05 L 105.00,70.44 L 112.50,68.71 L 120.00,66.86 L 127.50,64.91 L 135.00,62.87 L 142.50,60.74 L 150.00,58.54 L 157.50,56.28 L 165.00,53.97 L 172.50,51.61 L 180.00,49.23 L 187.50,46.83 L 195.00,44.43 L 202.50,42.03 L 210.00,39.66 L 217.50,37.32 L 225.00,35.02 L 232.50,32.77 L 240.00,30.59 L 247.50,28.49 L 255.00,26.47 L 262.50,24.56 L 270.00,22.75 L 277.50,21.05 L 285.00,19.48 L 292.50,18.05 L 300.00,16.75 L 307.50,15.60 L 315.00,14.60 L 322.50,13.76 L 330.00,13.08 L 337.50,12.56 L 345.00,12.21 L 352.50,12.03 L 360.00,12.02 L 367.50,12.17 L 375.00,12.50 L 382.50,13.00 L 390.00,13.65 L 397.50,14.48 L 405.00,15.45 L 412.50,16.58 L 420.00,17.86 L 427.50,19.28 L 435.00,20.83 L 442.50,22.51 L 450.00,24.30 L 457.50,26.21 L 465.00,28.21 L 472.50,30.30 L 480.00,32.47 L 487.50,34.71 L 495.00,37.00 L 502.50,39.34 L 510.00,41.71 L 517.50,44.10 L 525.00,46.50 L 532.50,48.90 L 540.00,51.29 L 547.50,53.65 L 555.00,55.97 L 562.50,58.24 L 570.00,60.45 L 577.50,62.59 L 585.00,64.64 L 592.50,66.60 L 600.00,68.46 L 607.50,70.21 L 615.00,71.83 L 622.50,73.33 L 630.00,74.69 L 637.50,75.91 L 645.00,76.98 L 652.50,77.89 L 660.00,78.64 L 667.50,79.23 L 675.00,79.66 L 682.50,79.91 L 690.00,80.00 L 697.50,79.92 L 705.00,79.67 L 712.50,79.24 L 720.00,78.66 L 727.50,77.91 L 735.00,77.00 L 742.50,75.94 L 750.00,74.72 L 757.50,73.37 L 765.00,71.87 L 772.50,70.25 L 780.00,68.51 L 787.50,66.65 L 795.00,64.69 L 802.50,62.64 L 810.00,60.50 L 817.50,58.30 L 825.00,56.03 L 832.50,53.71 L 840.00,51.35 L 847.50,48.96 L 855.00,46.56 L 862.50,44.16 L 870.00,41.77 L 877.50,39.40 L 885.00,37.06 L 892.50,34.76 L 900.00,32.52 L 900.00,632.52 L 892.50,634.76 L 885.00,637.06 L 877.50,639.40 L 870.00,641.77 L 862.50,644.16 L 855.00,646.56 L 847.50,648.96 L 840.00,651.35 L 832.50,653.71 L 825.00,656.03 L 817.50,658.30 L 810.00,660.50 L 802.50,662.64 L 795.00,664.69 L 787.50,666.65 L 780.00,668.51 L 772.50,670.25 L 765.00,671.87 L 757.50,673.37 L 750.00,674.72 L 742.50,675.94 L 735.00,677.00 L 727.50,677.91 L 720.00,678.66 L 712.50,679.24 L 705.00,679.67 L 697.50,679.92 L 690.00,680.00 L 682.50,679.91 L 675.00,679.66 L 667.50,679.23 L 660.00,678.64 L 652.50,677.89 L 645.00,676.98 L 637.50,675.91 L 630.00,674.69 L 622.50,673.33 L 615.00,671.83 L 607.50,670.21 L 600.00,668.46 L 592.50,666.60 L 585.00,664.64 L 577.50,662.59 L 570.00,660.45 L 562.50,658.24 L 555.00,655.97 L 547.50,653.65 L 540.00,651.29 L 532.50,648.90 L 525.00,646.50 L 517.50,644.10 L 510.00,641.71 L 502.50,639.34 L 495.00,637.00 L 487.50,634.71 L 480.00,632.47 L 472.50,630.30 L 465.00,628.21 L 457.50,626.21 L 450.00,624.30 L 442.50,622.51 L 435.00,620.83 L 427.50,619.28 L 420.00,617.86 L 412.50,616.58 L 405.00,615.45 L 397.50,614.48 L 390.00,613.65 L 382.50,613.00 L 375.00,612.50 L 367.50,612.17 L 360.00,612.02 L 352.50,612.03 L 345.00,612.21 L 337.50,612.56 L 330.00,613.08 L 322.50,613.76 L 315.00,614.60 L 307.50,615.60 L 300.00,616.75 L 292.50,618.05 L 285.00,619.48 L 277.50,621.05 L 270.00,622.75 L 262.50,624.56 L 255.00,626.47 L 247.50,628.49 L 240.00,630.59 L 232.50,632.77 L 225.00,635.02 L 217.50,637.32 L 210.00,639.66 L 202.50,642.03 L 195.00,644.43 L 187.50,646.83 L 180.00,649.23 L 172.50,651.61 L 165.00,653.97 L 157.50,656.28 L 150.00,658.54 L 142.50,660.74 L 135.00,662.87 L 127.50,664.91 L 120.00,666.86 L 112.50,668.71 L 105.00,670.44 L 97.50,672.05 L 90.00,673.52 L 82.50,674.87 L 75.00,676.06 L 67.50,677.11 L 60.00,678.00 L 52.50,678.73 L 45.00,679.30 L 37.50,679.70 L 30.00,679.93 L 22.50,680.00 L 15.00,679.89 L 7.50,679.62 L 0.00,679.17 Z"/>
    </clipPath>

    <filter id="dropShadow" x="-20%" y="-20%" width="140%" height="140%">
      <feDropShadow dx="0" dy="10" stdDeviation="10" flood-color="#000000" flood-opacity="0.35"/>
    </filter>
  </defs>

  <g filter="url(#dropShadow)">
    <g clip-path="url(#flagClip)">
      <path d="M 0.00,79.17 L 7.50,79.62 L 15.00,79.89 L 22.50,80.00 L 30.00,79.93 L 37.50,79.70 L 45.00,79.30 L 52.50,78.73 L 60.00,78.00 L 67.50,77.11 L 75.00,76.06 L 82.50,74.87 L 90.00,73.52 L 97.50,72.05 L 105.00,70.44 L 112.50,68.71 L 120.00,66.86 L 127.50,64.91 L 135.00,62.87 L 142.50,60.74 L 150.00,58.54 L 157.50,56.28 L 165.00,53.97 L 172.50,51.61 L 180.00,49.23 L 187.50,46.83 L 195.00,44.43 L 202.50,42.03 L 210.00,39.66 L 217.50,37.32 L 225.00,35.02 L 232.50,32.77 L 240.00,30.59 L 247.50,28.49 L 255.00,26.47 L 262.50,24.56 L 270.00,22.75 L 277.50,21.05 L 285.00,19.48 L 292.50,18.05 L 300.00,16.75 L 307.50,15.60 L 315.00,14.60 L 322.50,13.76 L 330.00,13.08 L 337.50,12.56 L 345.00,12.21 L 352.50,12.03 L 360.00,12.02 L 367.50,12.17 L 375.00,12.50 L 382.50,13.00 L 390.00,13.65 L 397.50,14.48 L 405.00,15.45 L 412.50,16.58 L 420.00,17.86 L 427.50,19.28 L 435.00,20.83 L 442.50,22.51 L 450.00,24.30 L 457.50,26.21 L 465.00,28.21 L 472.50,30.30 L 480.00,32.47 L 487.50,34.71 L 495.00,37.00 L 502.50,39.34 L 510.00,41.71 L 517.50,44.10 L 525.00,46.50 L 532.50,48.90 L 540.00,51.29 L 547.50,53.65 L 555.00,55.97 L 562.50,58.24 L 570.00,60.45 L 577.50,62.59 L 585.00,64.64 L 592.50,66.60 L 600.00,68.46 L 607.50,70.21 L 615.00,71.83 L 622.50,73.33 L 630.00,74.69 L 637.50,75.91 L 645.00,76.98 L 652.50,77.89 L 660.00,78.64 L 667.50,79.23 L 675.00,79.66 L 682.50,79.91 L 690.00,80.00 L 697.50,79.92 L 705.00,79.67 L 712.50,79.24 L 720.00,78.66 L 727.50,77.91 L 735.00,77.00 L 742.50,75.94 L 750.00,74.72 L 757.50,73.37 L 765.00,71.87 L 772.50,70.25 L 780.00,68.51 L 787.50,66.65 L 795.00,64.69 L 802.50,62.64 L 810.00,60.50 L 817.50,58.30 L 825.00,56.03 L 832.50,53.71 L 840.00,51.35 L 847.50,48.96 L 855.00,46.56 L 862.50,44.16 L 870.00,41.77 L 877.50,39.40 L 885.00,37.06 L 892.50,34.76 L 900.00,32.52 L 900.00,232.52 L 892.50,234.76 L 885.00,237.06 L 877.50,239.40 L 870.00,241.77 L 862.50,244.16 L 855.00,246.56 L 847.50,248.96 L 840.00,251.35 L 832.50,253.71 L 825.00,256.03 L 817.50,258.30 L 810.00,260.50 L 802.50,262.64 L 795.00,264.69 L 787.50,266.65 L 780.00,268.51 L 772.50,270.25 L 765.00,271.87 L 757.50,273.37 L 750.00,274.72 L 742.50,275.94 L 735.00,277.00 L 727.50,277.91 L 720.00,278.66 L 712.50,279.24 L 705.00,279.67 L 697.50,279.92 L 690.00,280.00 L 682.50,279.91 L 675.00,279.66 L 667.50,279.23 L 660.00,278.64 L 652.50,277.89 L 645.00,276.98 L 637.50,275.91 L 630.00,274.69 L 622.50,273.33 L 615.00,271.83 L 607.50,270.21 L 600.00,268.46 L 592.50,266.60 L 585.00,264.64 L 577.50,262.59 L 570.00,260.45 L 562.50,258.24 L 555.00,255.97 L 547.50,253.65 L 540.00,251.29 L 532.50,248.90 L 525.00,246.50 L 517.50,244.10 L 510.00,241.71 L 502.50,239.34 L 495.00,237.00 L 487.50,234.71 L 480.00,232.47 L 472.50,230.30 L 465.00,228.21 L 457.50,226.21 L 450.00,224.30 L 442.50,222.51 L 435.00,220.83 L 427.50,219.28 L 420.00,217.86 L 412.50,216.58 L 405.00,215.45 L 397.50,214.48 L 390.00,213.65 L 382.50,213.00 L 375.00,212.50 L 367.50,212.17 L 360.00,212.02 L 352.50,212.03 L 345.00,212.21 L 337.50,212.56 L 330.00,213.08 L 322.50,213.76 L 315.00,214.60 L 307.50,215.60 L 300.00,216.75 L 292.50,218.05 L 285.00,219.48 L 277.50,221.05 L 270.00,222.75 L 262.50,224.56 L 255.00,226.47 L 247.50,228.49 L 240.00,230.59 L 232.50,232.77 L 225.00,235.02 L 217.50,237.32 L 210.00,239.66 L 202.50,242.03 L 195.00,244.43 L 187.50,246.83 L 180.00,249.23 L 172.50,251.61 L 165.00,253.97 L 157.50,256.28 L 150.00,258.54 L 142.50,260.74 L 135.00,262.87 L 127.50,264.91 L 120.00,266.86 L 112.50,268.71 L 105.00,270.44 L 97.50,272.05 L 90.00,273.52 L 82.50,274.87 L 75.00,276.06 L 67.50,277.11 L 60.00,278.00 L 52.50,278.73 L 45.00,279.30 L 37.50,279.70 L 30.00,279.93 L 22.50,280.00 L 15.00,279.89 L 7.50,279.62 L 0.00,279.17 Z" fill="url(#shadeSaffron)"/>
      <path d="M 0.00,279.17 L 7.50,279.62 L 15.00,279.89 L 22.50,280.00 L 30.00,279.93 L 37.50,279.70 L 45.00,279.30 L 52.50,278.73 L 60.00,278.00 L 67.50,277.11 L 75.00,276.06 L 82.50,274.87 L 90.00,273.52 L 97.50,272.05 L 105.00,270.44 L 112.50,268.71 L 120.00,266.86 L 127.50,264.91 L 135.00,262.87 L 142.50,260.74 L 150.00,258.54 L 157.50,256.28 L 165.00,253.97 L 172.50,251.61 L 180.00,249.23 L 187.50,246.83 L 195.00,244.43 L 202.50,242.03 L 210.00,239.66 L 217.50,237.32 L 225.00,235.02 L 232.50,232.77 L 240.00,230.59 L 247.50,228.49 L 255.00,226.47 L 262.50,224.56 L 270.00,222.75 L 277.50,221.05 L 285.00,219.48 L 292.50,218.05 L 300.00,216.75 L 307.50,215.60 L 315.00,214.60 L 322.50,213.76 L 330.00,213.08 L 337.50,212.56 L 345.00,212.21 L 352.50,212.03 L 360.00,212.02 L 367.50,212.17 L 375.00,212.50 L 382.50,213.00 L 390.00,213.65 L 397.50,214.48 L 405.00,215.45 L 412.50,216.58 L 420.00,217.86 L 427.50,219.28 L 435.00,220.83 L 442.50,222.51 L 450.00,224.30 L 457.50,226.21 L 465.00,228.21 L 472.50,230.30 L 480.00,232.47 L 487.50,234.71 L 495.00,237.00 L 502.50,239.34 L 510.00,241.71 L 517.50,244.10 L 525.00,246.50 L 532.50,248.90 L 540.00,251.29 L 547.50,253.65 L 555.00,255.97 L 562.50,258.24 L 570.00,260.45 L 577.50,262.59 L 585.00,264.64 L 592.50,266.60 L 600.00,268.46 L 607.50,270.21 L 615.00,271.83 L 622.50,273.33 L 630.00,274.69 L 637.50,275.91 L 645.00,276.98 L 652.50,277.89 L 660.00,278.64 L 667.50,279.23 L 675.00,279.66 L 682.50,279.91 L 690.00,280.00 L 697.50,279.92 L 705.00,279.67 L 712.50,279.24 L 720.00,278.66 L 727.50,277.91 L 735.00,277.00 L 742.50,275.94 L 750.00,274.72 L 757.50,273.37 L 765.00,271.87 L 772.50,270.25 L 780.00,268.51 L 787.50,266.65 L 795.00,264.69 L 802.50,262.64 L 810.00,260.50 L 817.50,258.30 L 825.00,256.03 L 832.50,253.71 L 840.00,251.35 L 847.50,248.96 L 855.00,246.56 L 862.50,244.16 L 870.00,241.77 L 877.50,239.40 L 885.00,237.06 L 892.50,234.76 L 900.00,232.52 L 900.00,432.52 L 892.50,434.76 L 885.00,437.06 L 877.50,439.40 L 870.00,441.77 L 862.50,444.16 L 855.00,446.56 L 847.50,448.96 L 840.00,451.35 L 832.50,453.71 L 825.00,456.03 L 817.50,458.30 L 810.00,460.50 L 802.50,462.64 L 795.00,464.69 L 787.50,466.65 L 780.00,468.51 L 772.50,470.25 L 765.00,471.87 L 757.50,473.37 L 750.00,474.72 L 742.50,475.94 L 735.00,477.00 L 727.50,477.91 L 720.00,478.66 L 712.50,479.24 L 705.00,479.67 L 697.50,479.92 L 690.00,480.00 L 682.50,479.91 L 675.00,479.66 L 667.50,479.23 L 660.00,478.64 L 652.50,477.89 L 645.00,476.98 L 637.50,475.91 L 630.00,474.69 L 622.50,473.33 L 615.00,471.83 L 607.50,470.21 L 600.00,468.46 L 592.50,466.60 L 585.00,464.64 L 577.50,462.59 L 570.00,460.45 L 562.50,458.24 L 555.00,455.97 L 547.50,453.65 L 540.00,451.29 L 532.50,448.90 L 525.00,446.50 L 517.50,444.10 L 510.00,441.71 L 502.50,439.34 L 495.00,437.00 L 487.50,434.71 L 480.00,432.47 L 472.50,430.30 L 465.00,428.21 L 457.50,426.21 L 450.00,424.30 L 442.50,422.51 L 435.00,420.83 L 427.50,419.28 L 420.00,417.86 L 412.50,416.58 L 405.00,415.45 L 397.50,414.48 L 390.00,413.65 L 382.50,413.00 L 375.00,412.50 L 367.50,412.17 L 360.00,412.02 L 352.50,412.03 L 345.00,412.21 L 337.50,412.56 L 330.00,413.08 L 322.50,413.76 L 315.00,414.60 L 307.50,415.60 L 300.00,416.75 L 292.50,418.05 L 285.00,419.48 L 277.50,421.05 L 270.00,422.75 L 262.50,424.56 L 255.00,426.47 L 247.50,428.49 L 240.00,430.59 L 232.50,432.77 L 225.00,435.02 L 217.50,437.32 L 210.00,439.66 L 202.50,442.03 L 195.00,444.43 L 187.50,446.83 L 180.00,449.23 L 172.50,451.61 L 165.00,453.97 L 157.50,456.28 L 150.00,458.54 L 142.50,460.74 L 135.00,462.87 L 127.50,464.91 L 120.00,466.86 L 112.50,468.71 L 105.00,470.44 L 97.50,472.05 L 90.00,473.52 L 82.50,474.87 L 75.00,476.06 L 67.50,477.11 L 60.00,478.00 L 52.50,478.73 L 45.00,479.30 L 37.50,479.70 L 30.00,479.93 L 22.50,480.00 L 15.00,479.89 L 7.50,479.62 L 0.00,479.17 Z" fill="url(#shadeWhite)"/>
      <path d="M 0.00,479.17 L 7.50,479.62 L 15.00,479.89 L 22.50,480.00 L 30.00,479.93 L 37.50,479.70 L 45.00,479.30 L 52.50,478.73 L 60.00,478.00 L 67.50,477.11 L 75.00,476.06 L 82.50,474.87 L 90.00,473.52 L 97.50,472.05 L 105.00,470.44 L 112.50,468.71 L 120.00,466.86 L 127.50,464.91 L 135.00,462.87 L 142.50,460.74 L 150.00,458.54 L 157.50,456.28 L 165.00,453.97 L 172.50,451.61 L 180.00,449.23 L 187.50,446.83 L 195.00,444.43 L 202.50,442.03 L 210.00,439.66 L 217.50,437.32 L 225.00,435.02 L 232.50,432.77 L 240.00,430.59 L 247.50,428.49 L 255.00,426.47 L 262.50,424.56 L 270.00,422.75 L 277.50,421.05 L 285.00,419.48 L 292.50,418.05 L 300.00,416.75 L 307.50,415.60 L 315.00,414.60 L 322.50,413.76 L 330.00,413.08 L 337.50,412.56 L 345.00,412.21 L 352.50,412.03 L 360.00,412.02 L 367.50,412.17 L 375.00,412.50 L 382.50,413.00 L 390.00,413.65 L 397.50,414.48 L 405.00,415.45 L 412.50,416.58 L 420.00,417.86 L 427.50,419.28 L 435.00,420.83 L 442.50,422.51 L 450.00,424.30 L 457.50,426.21 L 465.00,428.21 L 472.50,430.30 L 480.00,432.47 L 487.50,434.71 L 495.00,437.00 L 502.50,439.34 L 510.00,441.71 L 517.50,444.10 L 525.00,446.50 L 532.50,448.90 L 540.00,451.29 L 547.50,453.65 L 555.00,455.97 L 562.50,458.24 L 570.00,460.45 L 577.50,462.59 L 585.00,464.64 L 592.50,466.60 L 600.00,468.46 L 607.50,470.21 L 615.00,471.83 L 622.50,473.33 L 630.00,474.69 L 637.50,475.91 L 645.00,476.98 L 652.50,477.89 L 660.00,478.64 L 667.50,479.23 L 675.00,479.66 L 682.50,479.91 L 690.00,480.00 L 697.50,479.92 L 705.00,479.67 L 712.50,479.24 L 720.00,478.66 L 727.50,477.91 L 735.00,477.00 L 742.50,475.94 L 750.00,474.72 L 757.50,473.37 L 765.00,471.87 L 772.50,470.25 L 780.00,468.51 L 787.50,466.65 L 795.00,464.69 L 802.50,462.64 L 810.00,460.50 L 817.50,458.30 L 825.00,456.03 L 832.50,453.71 L 840.00,451.35 L 847.50,448.96 L 855.00,446.56 L 862.50,444.16 L 870.00,441.77 L 877.50,439.40 L 885.00,437.06 L 892.50,434.76 L 900.00,432.52 L 900.00,632.52 L 892.50,634.76 L 885.00,637.06 L 877.50,639.40 L 870.00,641.77 L 862.50,644.16 L 855.00,646.56 L 847.50,648.96 L 840.00,651.35 L 832.50,653.71 L 825.00,656.03 L 817.50,658.30 L 810.00,660.50 L 802.50,662.64 L 795.00,664.69 L 787.50,666.65 L 780.00,668.51 L 772.50,670.25 L 765.00,671.87 L 757.50,673.37 L 750.00,674.72 L 742.50,675.94 L 735.00,677.00 L 727.50,677.91 L 720.00,678.66 L 712.50,679.24 L 705.00,679.67 L 697.50,679.92 L 690.00,680.00 L 682.50,679.91 L 675.00,679.66 L 667.50,679.23 L 660.00,678.64 L 652.50,677.89 L 645.00,676.98 L 637.50,675.91 L 630.00,674.69 L 622.50,673.33 L 615.00,671.83 L 607.50,670.21 L 600.00,668.46 L 592.50,666.60 L 585.00,664.64 L 577.50,662.59 L 570.00,660.45 L 562.50,658.24 L 555.00,655.97 L 547.50,653.65 L 540.00,651.29 L 532.50,648.90 L 525.00,646.50 L 517.50,644.10 L 510.00,641.71 L 502.50,639.34 L 495.00,637.00 L 487.50,634.71 L 480.00,632.47 L 472.50,630.30 L 465.00,628.21 L 457.50,626.21 L 450.00,624.30 L 442.50,622.51 L 435.00,620.83 L 427.50,619.28 L 420.00,617.86 L 412.50,616.58 L 405.00,615.45 L 397.50,614.48 L 390.00,613.65 L 382.50,613.00 L 375.00,612.50 L 367.50,612.17 L 360.00,612.02 L 352.50,612.03 L 345.00,612.21 L 337.50,612.56 L 330.00,613.08 L 322.50,613.76 L 315.00,614.60 L 307.50,615.60 L 300.00,616.75 L 292.50,618.05 L 285.00,619.48 L 277.50,621.05 L 270.00,622.75 L 262.50,624.56 L 255.00,626.47 L 247.50,628.49 L 240.00,630.59 L 232.50,632.77 L 225.00,635.02 L 217.50,637.32 L 210.00,639.66 L 202.50,642.03 L 195.00,644.43 L 187.50,646.83 L 180.00,649.23 L 172.50,651.61 L 165.00,653.97 L 157.50,656.28 L 150.00,658.54 L 142.50,660.74 L 135.00,662.87 L 127.50,664.91 L 120.00,666.86 L 112.50,668.71 L 105.00,670.44 L 97.50,672.05 L 90.00,673.52 L 82.50,674.87 L 75.00,676.06 L 67.50,677.11 L 60.00,678.00 L 52.50,678.73 L 45.00,679.30 L 37.50,679.70 L 30.00,679.93 L 22.50,680.00 L 15.00,679.89 L 7.50,679.62 L 0.00,679.17 Z" fill="url(#shadeGreen)"/>

      <g>
        <line x1="450.00" y1="324.30" x2="525.68" y2="324.30" stroke="#0b3d91" stroke-width="7.92"/>
      <line x1="450.00" y1="324.30" x2="523.10" y2="343.89" stroke="#0b3d91" stroke-width="7.92"/>
      <line x1="450.00" y1="324.30" x2="515.54" y2="362.14" stroke="#0b3d91" stroke-width="7.92"/>
      <line x1="450.00" y1="324.30" x2="503.51" y2="377.82" stroke="#0b3d91" stroke-width="7.92"/>
      <line x1="450.00" y1="324.30" x2="487.84" y2="389.85" stroke="#0b3d91" stroke-width="7.92"/>
      <line x1="450.00" y1="324.30" x2="469.59" y2="397.41" stroke="#0b3d91" stroke-width="7.92"/>
      <line x1="450.00" y1="324.30" x2="450.00" y2="399.98" stroke="#0b3d91" stroke-width="7.92"/>
      <line x1="450.00" y1="324.30" x2="430.41" y2="397.41" stroke="#0b3d91" stroke-width="7.92"/>
      <line x1="450.00" y1="324.30" x2="412.16" y2="389.85" stroke="#0b3d91" stroke-width="7.92"/>
      <line x1="450.00" y1="324.30" x2="396.49" y2="377.82" stroke="#0b3d91" stroke-width="7.92"/>
      <line x1="450.00" y1="324.30" x2="384.46" y2="362.14" stroke="#0b3d91" stroke-width="7.92"/>
      <line x1="450.00" y1="324.30" x2="376.90" y2="343.89" stroke="#0b3d91" stroke-width="7.92"/>
      <line x1="450.00" y1="324.30" x2="374.32" y2="324.30" stroke="#0b3d91" stroke-width="7.92"/>
      <line x1="450.00" y1="324.30" x2="376.90" y2="304.72" stroke="#0b3d91" stroke-width="7.92"/>
      <line x1="450.00" y1="324.30" x2="384.46" y2="286.46" stroke="#0b3d91" stroke-width="7.92"/>
      <line x1="450.00" y1="324.30" x2="396.49" y2="270.79" stroke="#0b3d91" stroke-width="7.92"/>
      <line x1="450.00" y1="324.30" x2="412.16" y2="258.76" stroke="#0b3d91" stroke-width="7.92"/>
      <line x1="450.00" y1="324.30" x2="430.41" y2="251.20" stroke="#0b3d91" stroke-width="7.92"/>
      <line x1="450.00" y1="324.30" x2="450.00" y2="248.62" stroke="#0b3d91" stroke-width="7.92"/>
      <line x1="450.00" y1="324.30" x2="469.59" y2="251.20" stroke="#0b3d91" stroke-width="7.92"/>
      <line x1="450.00" y1="324.30" x2="487.84" y2="258.76" stroke="#0b3d91" stroke-width="7.92"/>
      <line x1="450.00" y1="324.30" x2="503.51" y2="270.79" stroke="#0b3d91" stroke-width="7.92"/>
      <line x1="450.00" y1="324.30" x2="515.54" y2="286.46" stroke="#0b3d91" stroke-width="7.92"/>
      <line x1="450.00" y1="324.30" x2="523.10" y2="304.72" stroke="#0b3d91" stroke-width="7.92"/>
        <circle cx="535.50" cy="335.56" r="3.96" fill="#0b3d91"/>
      <circle cx="529.68" cy="357.31" r="3.96" fill="#0b3d91"/>
      <circle cx="518.42" cy="376.80" r="3.96" fill="#0b3d91"/>
      <circle cx="502.50" cy="392.72" r="3.96" fill="#0b3d91"/>
      <circle cx="483.00" cy="403.98" r="3.96" fill="#0b3d91"/>
      <circle cx="461.26" cy="409.81" r="3.96" fill="#0b3d91"/>
      <circle cx="438.74" cy="409.81" r="3.96" fill="#0b3d91"/>
      <circle cx="417.00" cy="403.98" r="3.96" fill="#0b3d91"/>
      <circle cx="397.50" cy="392.72" r="3.96" fill="#0b3d91"/>
      <circle cx="381.58" cy="376.80" r="3.96" fill="#0b3d91"/>
      <circle cx="370.32" cy="357.31" r="3.96" fill="#0b3d91"/>
      <circle cx="364.50" cy="335.56" r="3.96" fill="#0b3d91"/>
      <circle cx="364.50" cy="313.05" r="3.96" fill="#0b3d91"/>
      <circle cx="370.32" cy="291.30" r="3.96" fill="#0b3d91"/>
      <circle cx="381.58" cy="271.80" r="3.96" fill="#0b3d91"/>
      <circle cx="397.50" cy="255.89" r="3.96" fill="#0b3d91"/>
      <circle cx="417.00" cy="244.63" r="3.96" fill="#0b3d91"/>
      <circle cx="438.74" cy="238.80" r="3.96" fill="#0b3d91"/>
      <circle cx="461.26" cy="238.80" r="3.96" fill="#0b3d91"/>
      <circle cx="483.00" cy="244.63" r="3.96" fill="#0b3d91"/>
      <circle cx="502.50" cy="255.89" r="3.96" fill="#0b3d91"/>
      <circle cx="518.42" cy="271.80" r="3.96" fill="#0b3d91"/>
      <circle cx="529.68" cy="291.30" r="3.96" fill="#0b3d91"/>
      <circle cx="535.50" cy="313.05" r="3.96" fill="#0b3d91"/>
        <circle cx="450.00" cy="324.30" r="88.00" fill="none" stroke="#0b3d91" stroke-width="7.92"/>
        <circle cx="450.00" cy="324.30" r="12.32" fill="#0b3d91"/>
      </g>

      <!-- ridge highlight along the crest of each stripe -->
      <path d="M 0.00,79.17 L 7.50,79.62 L 15.00,79.89 L 22.50,80.00 L 30.00,79.93 L 37.50,79.70 L 45.00,79.30 L 52.50,78.73 L 60.00,78.00 L 67.50,77.11 L 75.00,76.06 L 82.50,74.87 L 90.00,73.52 L 97.50,72.05 L 105.00,70.44 L 112.50,68.71 L 120.00,66.86 L 127.50,64.91 L 135.00,62.87 L 142.50,60.74 L 150.00,58.54 L 157.50,56.28 L 165.00,53.97 L 172.50,51.61 L 180.00,49.23 L 187.50,46.83 L 195.00,44.43 L 202.50,42.03 L 210.00,39.66 L 217.50,37.32 L 225.00,35.02 L 232.50,32.77 L 240.00,30.59 L 247.50,28.49 L 255.00,26.47 L 262.50,24.56 L 270.00,22.75 L 277.50,21.05 L 285.00,19.48 L 292.50,18.05 L 300.00,16.75 L 307.50,15.60 L 315.00,14.60 L 322.50,13.76 L 330.00,13.08 L 337.50,12.56 L 345.00,12.21 L 352.50,12.03 L 360.00,12.02 L 367.50,12.17 L 375.00,12.50 L 382.50,13.00 L 390.00,13.65 L 397.50,14.48 L 405.00,15.45 L 412.50,16.58 L 420.00,17.86 L 427.50,19.28 L 435.00,20.83 L 442.50,22.51 L 450.00,24.30 L 457.50,26.21 L 465.00,28.21 L 472.50,30.30 L 480.00,32.47 L 487.50,34.71 L 495.00,37.00 L 502.50,39.34 L 510.00,41.71 L 517.50,44.10 L 525.00,46.50 L 532.50,48.90 L 540.00,51.29 L 547.50,53.65 L 555.00,55.97 L 562.50,58.24 L 570.00,60.45 L 577.50,62.59 L 585.00,64.64 L 592.50,66.60 L 600.00,68.46 L 607.50,70.21 L 615.00,71.83 L 622.50,73.33 L 630.00,74.69 L 637.50,75.91 L 645.00,76.98 L 652.50,77.89 L 660.00,78.64 L 667.50,79.23 L 675.00,79.66 L 682.50,79.91 L 690.00,80.00 L 697.50,79.92 L 705.00,79.67 L 712.50,79.24 L 720.00,78.66 L 727.50,77.91 L 735.00,77.00 L 742.50,75.94 L 750.00,74.72 L 757.50,73.37 L 765.00,71.87 L 772.50,70.25 L 780.00,68.51 L 787.50,66.65 L 795.00,64.69 L 802.50,62.64 L 810.00,60.50 L 817.50,58.30 L 825.00,56.03 L 832.50,53.71 L 840.00,51.35 L 847.50,48.96 L 855.00,46.56 L 862.50,44.16 L 870.00,41.77 L 877.50,39.40 L 885.00,37.06 L 892.50,34.76 L 900.00,32.52 " fill="none" stroke="#ffffff" stroke-opacity="0.55" stroke-width="7"/>
      <path d="M 0.00,279.17 L 7.50,279.62 L 15.00,279.89 L 22.50,280.00 L 30.00,279.93 L 37.50,279.70 L 45.00,279.30 L 52.50,278.73 L 60.00,278.00 L 67.50,277.11 L 75.00,276.06 L 82.50,274.87 L 90.00,273.52 L 97.50,272.05 L 105.00,270.44 L 112.50,268.71 L 120.00,266.86 L 127.50,264.91 L 135.00,262.87 L 142.50,260.74 L 150.00,258.54 L 157.50,256.28 L 165.00,253.97 L 172.50,251.61 L 180.00,249.23 L 187.50,246.83 L 195.00,244.43 L 202.50,242.03 L 210.00,239.66 L 217.50,237.32 L 225.00,235.02 L 232.50,232.77 L 240.00,230.59 L 247.50,228.49 L 255.00,226.47 L 262.50,224.56 L 270.00,222.75 L 277.50,221.05 L 285.00,219.48 L 292.50,218.05 L 300.00,216.75 L 307.50,215.60 L 315.00,214.60 L 322.50,213.76 L 330.00,213.08 L 337.50,212.56 L 345.00,212.21 L 352.50,212.03 L 360.00,212.02 L 367.50,212.17 L 375.00,212.50 L 382.50,213.00 L 390.00,213.65 L 397.50,214.48 L 405.00,215.45 L 412.50,216.58 L 420.00,217.86 L 427.50,219.28 L 435.00,220.83 L 442.50,222.51 L 450.00,224.30 L 457.50,226.21 L 465.00,228.21 L 472.50,230.30 L 480.00,232.47 L 487.50,234.71 L 495.00,237.00 L 502.50,239.34 L 510.00,241.71 L 517.50,244.10 L 525.00,246.50 L 532.50,248.90 L 540.00,251.29 L 547.50,253.65 L 555.00,255.97 L 562.50,258.24 L 570.00,260.45 L 577.50,262.59 L 585.00,264.64 L 592.50,266.60 L 600.00,268.46 L 607.50,270.21 L 615.00,271.83 L 622.50,273.33 L 630.00,274.69 L 637.50,275.91 L 645.00,276.98 L 652.50,277.89 L 660.00,278.64 L 667.50,279.23 L 675.00,279.66 L 682.50,279.91 L 690.00,280.00 L 697.50,279.92 L 705.00,279.67 L 712.50,279.24 L 720.00,278.66 L 727.50,277.91 L 735.00,277.00 L 742.50,275.94 L 750.00,274.72 L 757.50,273.37 L 765.00,271.87 L 772.50,270.25 L 780.00,268.51 L 787.50,266.65 L 795.00,264.69 L 802.50,262.64 L 810.00,260.50 L 817.50,258.30 L 825.00,256.03 L 832.50,253.71 L 840.00,251.35 L 847.50,248.96 L 855.00,246.56 L 862.50,244.16 L 870.00,241.77 L 877.50,239.40 L 885.00,237.06 L 892.50,234.76 L 900.00,232.52 "  fill="none" stroke="#ffffff" stroke-opacity="0.35" stroke-width="5"/>
      <path d="M 0.00,479.17 L 7.50,479.62 L 15.00,479.89 L 22.50,480.00 L 30.00,479.93 L 37.50,479.70 L 45.00,479.30 L 52.50,478.73 L 60.00,478.00 L 67.50,477.11 L 75.00,476.06 L 82.50,474.87 L 90.00,473.52 L 97.50,472.05 L 105.00,470.44 L 112.50,468.71 L 120.00,466.86 L 127.50,464.91 L 135.00,462.87 L 142.50,460.74 L 150.00,458.54 L 157.50,456.28 L 165.00,453.97 L 172.50,451.61 L 180.00,449.23 L 187.50,446.83 L 195.00,444.43 L 202.50,442.03 L 210.00,439.66 L 217.50,437.32 L 225.00,435.02 L 232.50,432.77 L 240.00,430.59 L 247.50,428.49 L 255.00,426.47 L 262.50,424.56 L 270.00,422.75 L 277.50,421.05 L 285.00,419.48 L 292.50,418.05 L 300.00,416.75 L 307.50,415.60 L 315.00,414.60 L 322.50,413.76 L 330.00,413.08 L 337.50,412.56 L 345.00,412.21 L 352.50,412.03 L 360.00,412.02 L 367.50,412.17 L 375.00,412.50 L 382.50,413.00 L 390.00,413.65 L 397.50,414.48 L 405.00,415.45 L 412.50,416.58 L 420.00,417.86 L 427.50,419.28 L 435.00,420.83 L 442.50,422.51 L 450.00,424.30 L 457.50,426.21 L 465.00,428.21 L 472.50,430.30 L 480.00,432.47 L 487.50,434.71 L 495.00,437.00 L 502.50,439.34 L 510.00,441.71 L 517.50,444.10 L 525.00,446.50 L 532.50,448.90 L 540.00,451.29 L 547.50,453.65 L 555.00,455.97 L 562.50,458.24 L 570.00,460.45 L 577.50,462.59 L 585.00,464.64 L 592.50,466.60 L 600.00,468.46 L 607.50,470.21 L 615.00,471.83 L 622.50,473.33 L 630.00,474.69 L 637.50,475.91 L 645.00,476.98 L 652.50,477.89 L 660.00,478.64 L 667.50,479.23 L 675.00,479.66 L 682.50,479.91 L 690.00,480.00 L 697.50,479.92 L 705.00,479.67 L 712.50,479.24 L 720.00,478.66 L 727.50,477.91 L 735.00,477.00 L 742.50,475.94 L 750.00,474.72 L 757.50,473.37 L 765.00,471.87 L 772.50,470.25 L 780.00,468.51 L 787.50,466.65 L 795.00,464.69 L 802.50,462.64 L 810.00,460.50 L 817.50,458.30 L 825.00,456.03 L 832.50,453.71 L 840.00,451.35 L 847.50,448.96 L 855.00,446.56 L 862.50,444.16 L 870.00,441.77 L 877.50,439.40 L 885.00,437.06 L 892.50,434.76 L 900.00,432.52 "  fill="none" stroke="#ffffff" stroke-opacity="0.30" stroke-width="5"/>

      <!-- valley shadow beneath the crease of each stripe -->
      <path d="M 0.00,279.17 L 7.50,279.62 L 15.00,279.89 L 22.50,280.00 L 30.00,279.93 L 37.50,279.70 L 45.00,279.30 L 52.50,278.73 L 60.00,278.00 L 67.50,277.11 L 75.00,276.06 L 82.50,274.87 L 90.00,273.52 L 97.50,272.05 L 105.00,270.44 L 112.50,268.71 L 120.00,266.86 L 127.50,264.91 L 135.00,262.87 L 142.50,260.74 L 150.00,258.54 L 157.50,256.28 L 165.00,253.97 L 172.50,251.61 L 180.00,249.23 L 187.50,246.83 L 195.00,244.43 L 202.50,242.03 L 210.00,239.66 L 217.50,237.32 L 225.00,235.02 L 232.50,232.77 L 240.00,230.59 L 247.50,228.49 L 255.00,226.47 L 262.50,224.56 L 270.00,222.75 L 277.50,221.05 L 285.00,219.48 L 292.50,218.05 L 300.00,216.75 L 307.50,215.60 L 315.00,214.60 L 322.50,213.76 L 330.00,213.08 L 337.50,212.56 L 345.00,212.21 L 352.50,212.03 L 360.00,212.02 L 367.50,212.17 L 375.00,212.50 L 382.50,213.00 L 390.00,213.65 L 397.50,214.48 L 405.00,215.45 L 412.50,216.58 L 420.00,217.86 L 427.50,219.28 L 435.00,220.83 L 442.50,222.51 L 450.00,224.30 L 457.50,226.21 L 465.00,228.21 L 472.50,230.30 L 480.00,232.47 L 487.50,234.71 L 495.00,237.00 L 502.50,239.34 L 510.00,241.71 L 517.50,244.10 L 525.00,246.50 L 532.50,248.90 L 540.00,251.29 L 547.50,253.65 L 555.00,255.97 L 562.50,258.24 L 570.00,260.45 L 577.50,262.59 L 585.00,264.64 L 592.50,266.60 L 600.00,268.46 L 607.50,270.21 L 615.00,271.83 L 622.50,273.33 L 630.00,274.69 L 637.50,275.91 L 645.00,276.98 L 652.50,277.89 L 660.00,278.64 L 667.50,279.23 L 675.00,279.66 L 682.50,279.91 L 690.00,280.00 L 697.50,279.92 L 705.00,279.67 L 712.50,279.24 L 720.00,278.66 L 727.50,277.91 L 735.00,277.00 L 742.50,275.94 L 750.00,274.72 L 757.50,273.37 L 765.00,271.87 L 772.50,270.25 L 780.00,268.51 L 787.50,266.65 L 795.00,264.69 L 802.50,262.64 L 810.00,260.50 L 817.50,258.30 L 825.00,256.03 L 832.50,253.71 L 840.00,251.35 L 847.50,248.96 L 855.00,246.56 L 862.50,244.16 L 870.00,241.77 L 877.50,239.40 L 885.00,237.06 L 892.50,234.76 L 900.00,232.52 "  fill="none" stroke="#000000" stroke-opacity="0.18" stroke-width="9" transform="translate(0,6)"/>
      <path d="M 0.00,479.17 L 7.50,479.62 L 15.00,479.89 L 22.50,480.00 L 30.00,479.93 L 37.50,479.70 L 45.00,479.30 L 52.50,478.73 L 60.00,478.00 L 67.50,477.11 L 75.00,476.06 L 82.50,474.87 L 90.00,473.52 L 97.50,472.05 L 105.00,470.44 L 112.50,468.71 L 120.00,466.86 L 127.50,464.91 L 135.00,462.87 L 142.50,460.74 L 150.00,458.54 L 157.50,456.28 L 165.00,453.97 L 172.50,451.61 L 180.00,449.23 L 187.50,446.83 L 195.00,444.43 L 202.50,442.03 L 210.00,439.66 L 217.50,437.32 L 225.00,435.02 L 232.50,432.77 L 240.00,430.59 L 247.50,428.49 L 255.00,426.47 L 262.50,424.56 L 270.00,422.75 L 277.50,421.05 L 285.00,419.48 L 292.50,418.05 L 300.00,416.75 L 307.50,415.60 L 315.00,414.60 L 322.50,413.76 L 330.00,413.08 L 337.50,412.56 L 345.00,412.21 L 352.50,412.03 L 360.00,412.02 L 367.50,412.17 L 375.00,412.50 L 382.50,413.00 L 390.00,413.65 L 397.50,414.48 L 405.00,415.45 L 412.50,416.58 L 420.00,417.86 L 427.50,419.28 L 435.00,420.83 L 442.50,422.51 L 450.00,424.30 L 457.50,426.21 L 465.00,428.21 L 472.50,430.30 L 480.00,432.47 L 487.50,434.71 L 495.00,437.00 L 502.50,439.34 L 510.00,441.71 L 517.50,444.10 L 525.00,446.50 L 532.50,448.90 L 540.00,451.29 L 547.50,453.65 L 555.00,455.97 L 562.50,458.24 L 570.00,460.45 L 577.50,462.59 L 585.00,464.64 L 592.50,466.60 L 600.00,468.46 L 607.50,470.21 L 615.00,471.83 L 622.50,473.33 L 630.00,474.69 L 637.50,475.91 L 645.00,476.98 L 652.50,477.89 L 660.00,478.64 L 667.50,479.23 L 675.00,479.66 L 682.50,479.91 L 690.00,480.00 L 697.50,479.92 L 705.00,479.67 L 712.50,479.24 L 720.00,478.66 L 727.50,477.91 L 735.00,477.00 L 742.50,475.94 L 750.00,474.72 L 757.50,473.37 L 765.00,471.87 L 772.50,470.25 L 780.00,468.51 L 787.50,466.65 L 795.00,464.69 L 802.50,462.64 L 810.00,460.50 L 817.50,458.30 L 825.00,456.03 L 832.50,453.71 L 840.00,451.35 L 847.50,448.96 L 855.00,446.56 L 862.50,444.16 L 870.00,441.77 L 877.50,439.40 L 885.00,437.06 L 892.50,434.76 L 900.00,432.52 "  fill="none" stroke="#000000" stroke-opacity="0.18" stroke-width="9" transform="translate(0,6)"/>
      <path d="M 0.00,679.17 L 7.50,679.62 L 15.00,679.89 L 22.50,680.00 L 30.00,679.93 L 37.50,679.70 L 45.00,679.30 L 52.50,678.73 L 60.00,678.00 L 67.50,677.11 L 75.00,676.06 L 82.50,674.87 L 90.00,673.52 L 97.50,672.05 L 105.00,670.44 L 112.50,668.71 L 120.00,666.86 L 127.50,664.91 L 135.00,662.87 L 142.50,660.74 L 150.00,658.54 L 157.50,656.28 L 165.00,653.97 L 172.50,651.61 L 180.00,649.23 L 187.50,646.83 L 195.00,644.43 L 202.50,642.03 L 210.00,639.66 L 217.50,637.32 L 225.00,635.02 L 232.50,632.77 L 240.00,630.59 L 247.50,628.49 L 255.00,626.47 L 262.50,624.56 L 270.00,622.75 L 277.50,621.05 L 285.00,619.48 L 292.50,618.05 L 300.00,616.75 L 307.50,615.60 L 315.00,614.60 L 322.50,613.76 L 330.00,613.08 L 337.50,612.56 L 345.00,612.21 L 352.50,612.03 L 360.00,612.02 L 367.50,612.17 L 375.00,612.50 L 382.50,613.00 L 390.00,613.65 L 397.50,614.48 L 405.00,615.45 L 412.50,616.58 L 420.00,617.86 L 427.50,619.28 L 435.00,620.83 L 442.50,622.51 L 450.00,624.30 L 457.50,626.21 L 465.00,628.21 L 472.50,630.30 L 480.00,632.47 L 487.50,634.71 L 495.00,637.00 L 502.50,639.34 L 510.00,641.71 L 517.50,644.10 L 525.00,646.50 L 532.50,648.90 L 540.00,651.29 L 547.50,653.65 L 555.00,655.97 L 562.50,658.24 L 570.00,660.45 L 577.50,662.59 L 585.00,664.64 L 592.50,666.60 L 600.00,668.46 L 607.50,670.21 L 615.00,671.83 L 622.50,673.33 L 630.00,674.69 L 637.50,675.91 L 645.00,676.98 L 652.50,677.89 L 660.00,678.64 L 667.50,679.23 L 675.00,679.66 L 682.50,679.91 L 690.00,680.00 L 697.50,679.92 L 705.00,679.67 L 712.50,679.24 L 720.00,678.66 L 727.50,677.91 L 735.00,677.00 L 742.50,675.94 L 750.00,674.72 L 757.50,673.37 L 765.00,671.87 L 772.50,670.25 L 780.00,668.51 L 787.50,666.65 L 795.00,664.69 L 802.50,662.64 L 810.00,660.50 L 817.50,658.30 L 825.00,656.03 L 832.50,653.71 L 840.00,651.35 L 847.50,648.96 L 855.00,646.56 L 862.50,644.16 L 870.00,641.77 L 877.50,639.40 L 885.00,637.06 L 892.50,634.76 L 900.00,632.52 " fill="none" stroke="#000000" stroke-opacity="0.22" stroke-width="9" transform="translate(0,4)"/>

      <!-- overall directional gloss -->
      <rect x="0" y="0" width="900" height="692.00" fill="url(#glossDiag)"/>
      <rect x="0" y="0" width="900" height="692.00" fill="url(#topRidge)" opacity="0.5"/>
    </g>

    <!-- crisp thin outline to define the silhouette -->
    <path d="M 0.00,79.17 L 7.50,79.62 L 15.00,79.89 L 22.50,80.00 L 30.00,79.93 L 37.50,79.70 L 45.00,79.30 L 52.50,78.73 L 60.00,78.00 L 67.50,77.11 L 75.00,76.06 L 82.50,74.87 L 90.00,73.52 L 97.50,72.05 L 105.00,70.44 L 112.50,68.71 L 120.00,66.86 L 127.50,64.91 L 135.00,62.87 L 142.50,60.74 L 150.00,58.54 L 157.50,56.28 L 165.00,53.97 L 172.50,51.61 L 180.00,49.23 L 187.50,46.83 L 195.00,44.43 L 202.50,42.03 L 210.00,39.66 L 217.50,37.32 L 225.00,35.02 L 232.50,32.77 L 240.00,30.59 L 247.50,28.49 L 255.00,26.47 L 262.50,24.56 L 270.00,22.75 L 277.50,21.05 L 285.00,19.48 L 292.50,18.05 L 300.00,16.75 L 307.50,15.60 L 315.00,14.60 L 322.50,13.76 L 330.00,13.08 L 337.50,12.56 L 345.00,12.21 L 352.50,12.03 L 360.00,12.02 L 367.50,12.17 L 375.00,12.50 L 382.50,13.00 L 390.00,13.65 L 397.50,14.48 L 405.00,15.45 L 412.50,16.58 L 420.00,17.86 L 427.50,19.28 L 435.00,20.83 L 442.50,22.51 L 450.00,24.30 L 457.50,26.21 L 465.00,28.21 L 472.50,30.30 L 480.00,32.47 L 487.50,34.71 L 495.00,37.00 L 502.50,39.34 L 510.00,41.71 L 517.50,44.10 L 525.00,46.50 L 532.50,48.90 L 540.00,51.29 L 547.50,53.65 L 555.00,55.97 L 562.50,58.24 L 570.00,60.45 L 577.50,62.59 L 585.00,64.64 L 592.50,66.60 L 600.00,68.46 L 607.50,70.21 L 615.00,71.83 L 622.50,73.33 L 630.00,74.69 L 637.50,75.91 L 645.00,76.98 L 652.50,77.89 L 660.00,78.64 L 667.50,79.23 L 675.00,79.66 L 682.50,79.91 L 690.00,80.00 L 697.50,79.92 L 705.00,79.67 L 712.50,79.24 L 720.00,78.66 L 727.50,77.91 L 735.00,77.00 L 742.50,75.94 L 750.00,74.72 L 757.50,73.37 L 765.00,71.87 L 772.50,70.25 L 780.00,68.51 L 787.50,66.65 L 795.00,64.69 L 802.50,62.64 L 810.00,60.50 L 817.50,58.30 L 825.00,56.03 L 832.50,53.71 L 840.00,51.35 L 847.50,48.96 L 855.00,46.56 L 862.50,44.16 L 870.00,41.77 L 877.50,39.40 L 885.00,37.06 L 892.50,34.76 L 900.00,32.52 L 900.00,632.52 L 892.50,634.76 L 885.00,637.06 L 877.50,639.40 L 870.00,641.77 L 862.50,644.16 L 855.00,646.56 L 847.50,648.96 L 840.00,651.35 L 832.50,653.71 L 825.00,656.03 L 817.50,658.30 L 810.00,660.50 L 802.50,662.64 L 795.00,664.69 L 787.50,666.65 L 780.00,668.51 L 772.50,670.25 L 765.00,671.87 L 757.50,673.37 L 750.00,674.72 L 742.50,675.94 L 735.00,677.00 L 727.50,677.91 L 720.00,678.66 L 712.50,679.24 L 705.00,679.67 L 697.50,679.92 L 690.00,680.00 L 682.50,679.91 L 675.00,679.66 L 667.50,679.23 L 660.00,678.64 L 652.50,677.89 L 645.00,676.98 L 637.50,675.91 L 630.00,674.69 L 622.50,673.33 L 615.00,671.83 L 607.50,670.21 L 600.00,668.46 L 592.50,666.60 L 585.00,664.64 L 577.50,662.59 L 570.00,660.45 L 562.50,658.24 L 555.00,655.97 L 547.50,653.65 L 540.00,651.29 L 532.50,648.90 L 525.00,646.50 L 517.50,644.10 L 510.00,641.71 L 502.50,639.34 L 495.00,637.00 L 487.50,634.71 L 480.00,632.47 L 472.50,630.30 L 465.00,628.21 L 457.50,626.21 L 450.00,624.30 L 442.50,622.51 L 435.00,620.83 L 427.50,619.28 L 420.00,617.86 L 412.50,616.58 L 405.00,615.45 L 397.50,614.48 L 390.00,613.65 L 382.50,613.00 L 375.00,612.50 L 367.50,612.17 L 360.00,612.02 L 352.50,612.03 L 345.00,612.21 L 337.50,612.56 L 330.00,613.08 L 322.50,613.76 L 315.00,614.60 L 307.50,615.60 L 300.00,616.75 L 292.50,618.05 L 285.00,619.48 L 277.50,621.05 L 270.00,622.75 L 262.50,624.56 L 255.00,626.47 L 247.50,628.49 L 240.00,630.59 L 232.50,632.77 L 225.00,635.02 L 217.50,637.32 L 210.00,639.66 L 202.50,642.03 L 195.00,644.43 L 187.50,646.83 L 180.00,649.23 L 172.50,651.61 L 165.00,653.97 L 157.50,656.28 L 150.00,658.54 L 142.50,660.74 L 135.00,662.87 L 127.50,664.91 L 120.00,666.86 L 112.50,668.71 L 105.00,670.44 L 97.50,672.05 L 90.00,673.52 L 82.50,674.87 L 75.00,676.06 L 67.50,677.11 L 60.00,678.00 L 52.50,678.73 L 45.00,679.30 L 37.50,679.70 L 30.00,679.93 L 22.50,680.00 L 15.00,679.89 L 7.50,679.62 L 0.00,679.17 Z" fill="none" stroke="#00000055" stroke-width="2.5"/>
  </g>
</svg>
